<svg width="28" height="28" viewBox="0 0 28 28" fill="none" xmlns="http://www.w3.org/2000/svg">
<path d="M8.66371 22.0593C9.63129 22.0593 10.424 22.8689 10.424 23.869C10.424 24.8572 9.63129 25.6668 8.66371 25.6668C7.68447 25.6668 6.89175 24.8572 6.89175 23.869C6.89175 22.8689 7.68447 22.0593 8.66371 22.0593ZM21.7785 22.0593C22.7461 22.0593 23.5388 22.8689 23.5388 23.869C23.5388 24.8572 22.7461 25.6668 21.7785 25.6668C20.7993 25.6668 20.0065 24.8572 20.0065 23.869C20.0065 22.8689 20.7993 22.0593 21.7785 22.0593ZM3.35974 2.34369L6.14007 2.77111C6.53643 2.84374 6.82787 3.17592 6.86284 3.58072L7.08434 6.24765C7.11931 6.62983 7.42241 6.91557 7.79545 6.91557H23.539C24.2501 6.91557 24.7164 7.1656 25.1827 7.71327C25.649 8.26094 25.7306 9.04673 25.6257 9.7599L24.5183 17.5702C24.3084 19.0715 23.0494 20.1776 21.5689 20.1776H8.85046C7.3 20.1776 6.01767 18.9644 5.88944 17.3928L4.81694 4.41413L3.05664 4.10458C2.59034 4.02124 2.26393 3.55691 2.34553 3.08067C2.42713 2.59372 2.88178 2.27106 3.35974 2.34369ZM19.7037 11.3196H16.4745C15.9849 11.3196 15.6002 11.7125 15.6002 12.2125C15.6002 12.7007 15.9849 13.1055 16.4745 13.1055H19.7037C20.1933 13.1055 20.578 12.7007 20.578 12.2125C20.578 11.7125 20.1933 11.3196 19.7037 11.3196Z" fill="#FBC32E"/>
</svg>
