<svg width="35" height="35" viewBox="0 0 35 35" fill="none" xmlns="http://www.w3.org/2000/svg">
<g id="discord 2">
<path id="Vector" d="M25.5413 7H9.45877C9.13473 7.00115 8.81409 7.06611 8.51516 7.19117C8.21623 7.31624 7.94485 7.49896 7.71654 7.7289C7.48822 7.95884 7.30743 8.2315 7.18449 8.53131C7.06155 8.83112 6.99886 9.15221 7.00002 9.47625V25.5237C6.99886 25.8478 7.06155 26.1689 7.18449 26.4687C7.30743 26.7685 7.48822 27.0412 7.71654 27.2711C7.94485 27.501 8.21623 27.6838 8.51516 27.8088C8.81409 27.9339 9.13473 27.9989 9.45877 28H23.065L22.435 25.7775L23.9663 27.3787L25.4188 28.7175L28 31.0012V9.47625C28.0012 9.15221 27.9385 8.83112 27.8155 8.53131C27.6926 8.2315 27.5118 7.95884 27.2835 7.7289C27.0552 7.49896 26.7838 7.31624 26.4849 7.19117C26.1859 7.06611 25.8653 7.00115 25.5413 7ZM20.9038 22.6712C20.9038 22.6712 20.475 22.155 20.1163 21.7C20.9853 21.4957 21.754 20.9905 22.2863 20.2737C21.8535 20.5611 21.3897 20.7988 20.9038 20.9825C20.3428 21.2229 19.7554 21.3962 19.1538 21.4987C18.1245 21.6928 17.068 21.6928 16.0388 21.4987C15.4408 21.381 14.8549 21.2082 14.2888 20.9825C13.9874 20.8705 13.6949 20.736 13.4138 20.58L13.3 20.5188H13.2563C13.0375 20.3962 12.915 20.3087 12.915 20.3087C13.4286 21.0114 14.1713 21.5128 15.015 21.7262L14.2188 22.7237C13.5056 22.7423 12.7987 22.5862 12.1597 22.2689C11.5207 21.9517 10.9689 21.483 10.5525 20.9037C10.5969 18.4678 11.1954 16.074 12.3025 13.9037C13.2677 13.1448 14.4449 12.7045 15.6713 12.6437L15.7938 12.7925C14.6387 13.0767 13.5604 13.6114 12.635 14.3587C12.635 14.3587 12.8975 14.2187 13.3438 14.0087C14.206 13.6173 15.1242 13.3634 16.065 13.2562H16.275C17.08 13.1594 17.8938 13.1594 18.6988 13.2562C19.9664 13.3999 21.1938 13.7893 22.3125 14.4025C21.4337 13.6894 20.4138 13.1705 19.32 12.88L19.4863 12.6875C20.7152 12.7487 21.895 13.1889 22.8638 13.9475C23.9689 16.1185 24.5672 18.5119 24.6138 20.9475C24.1826 21.5154 23.6193 21.9693 22.9726 22.2697C22.326 22.5701 21.6158 22.708 20.9038 22.6712Z" fill="#FBC32E"/>
<path id="Vector_2" d="M19.7055 19.7313C20.382 19.7313 20.9305 19.1358 20.9305 18.4013C20.9305 17.6668 20.382 17.0713 19.7055 17.0713C19.0289 17.0713 18.4805 17.6668 18.4805 18.4013C18.4805 19.1358 19.0289 19.7313 19.7055 19.7313Z" fill="#FBC32E"/>
<path id="Vector_3" d="M15.3301 17.0712C15.0602 17.0483 14.7896 17.1078 14.5542 17.2418C14.3188 17.3759 14.1296 17.5782 14.0116 17.822C13.8936 18.0659 13.8524 18.3398 13.8933 18.6076C13.9343 18.8754 14.0555 19.1244 14.241 19.3219C14.4265 19.5193 14.6676 19.6558 14.9323 19.7134C15.197 19.7709 15.473 19.7468 15.7237 19.6442C15.9744 19.5416 16.1881 19.3653 16.3366 19.1387C16.485 18.9121 16.5612 18.6458 16.5551 18.375C16.5622 18.0405 16.4379 17.7167 16.2089 17.4729C15.9798 17.2291 15.6643 17.0849 15.3301 17.0712Z" fill="#FBC32E"/>
</g>
</svg>
