<svg width="46" height="34" viewBox="0 0 46 34" fill="none" xmlns="http://www.w3.org/2000/svg">
<path d="M21.4453 4.19605V6.13276H29.8089C27.3427 4.51884 24.4476 3.76567 21.4453 4.19605Z" fill="#B22234"/>
<path d="M21.4453 8.06952H32.2751C31.5246 7.31636 30.774 6.67079 29.8089 6.13281H21.4453V8.06952Z" fill="white"/>
<path d="M21.4453 10.0065H33.7763C33.3474 9.25337 32.8113 8.6078 32.1679 8.06982H21.4453V10.0065Z" fill="#B22234"/>
<path d="M21.4453 12.0505H34.8486C34.5269 11.4049 34.2052 10.6517 33.7763 10.1138H21.4453V12.0505Z" fill="white"/>
<path d="M21.4453 13.9875H35.4919C35.3847 13.3419 35.1703 12.6964 34.8486 12.0508H21.4453V13.9875Z" fill="#B22234"/>
<path d="M21.4453 16.0314H35.8136C35.8136 15.3859 35.7064 14.7403 35.4919 14.0947H21.4453V16.0314Z" fill="white"/>
<path d="M21.4453 17.9684H35.8136C35.8136 17.6457 35.8136 17.3229 35.8136 17.0001C35.8136 16.6773 35.8136 16.3545 35.8136 16.0317H21.4453V17.9684Z" fill="#B22234"/>
<path d="M10.1865 17.9683C10.1865 18.6138 10.2937 19.2594 10.5082 19.905H35.4919C35.5991 19.2594 35.7063 18.6138 35.8136 17.9683H10.1865Z" fill="white"/>
<path d="M11.1512 21.9494H34.9554C35.1698 21.3038 35.3843 20.6583 35.5987 20.0127H10.5078C10.615 20.6583 10.8295 21.3038 11.1512 21.9494Z" fill="#B22234"/>
<path d="M12.1164 23.8859H33.7761C34.205 23.2404 34.5267 22.5948 34.8483 21.9492H11.1514C11.3658 22.5948 11.7947 23.348 12.1164 23.8859Z" fill="white"/>
<path d="M13.7246 25.9304H32.2747C32.8109 25.2848 33.347 24.6392 33.8831 23.9937H12.1162C12.6523 24.6392 13.1885 25.2848 13.7246 25.9304Z" fill="#B22234"/>
<path d="M16.1908 27.8669H29.9157C30.7736 27.3289 31.6314 26.6833 32.382 25.9302H13.7246C14.4752 26.6833 15.2258 27.3289 16.1908 27.8669Z" fill="white"/>
<path d="M22.9467 29.9113C25.4129 29.9113 27.7718 29.2657 29.8091 27.9746H16.1914C18.2287 29.1582 20.5877 29.9113 22.9467 29.9113Z" fill="#B22234"/>
<path d="M21.4451 16.0317V4.19629C20.0511 4.30388 18.6572 4.73426 17.3705 5.37983H17.2633L17.4777 5.91781L17.0488 5.59502L16.6199 5.91781L16.7271 5.70262C16.4054 5.91781 16.0838 6.133 15.6549 6.34819V6.45578H16.191L15.7621 6.77857L15.9765 7.31654L15.5476 6.99376L15.0115 7.42414L15.226 6.88616L15.1187 6.77857C14.7971 7.10135 14.3681 7.42414 14.0465 7.74692L14.1537 8.06971H14.6898L14.2609 8.39249L14.4754 8.93047L13.9392 8.50009L13.5103 8.82287L13.7248 8.2849L13.6176 8.1773C13.1887 8.60768 12.867 8.93047 12.6525 9.36085H13.1887L12.7598 9.68363L12.867 10.2216L12.4381 9.89882L12.0092 10.2216C11.7947 10.652 11.473 11.0824 11.2586 11.5127V11.6203H11.1514C10.8297 12.2659 10.6152 13.0191 10.4008 13.6646H10.7225L10.9369 13.1267L11.1514 13.6646H11.6875L11.2586 13.9874L11.473 14.5254L11.0441 14.2026L10.6152 14.5254L10.8297 13.9874H10.508C10.2936 14.9558 10.1863 16.0317 10.0791 17.0001C10.0791 17.3229 10.0791 17.6457 10.0791 17.9684H21.4451V16.0317ZM11.3658 17.4305L10.9369 17.1077L10.508 17.4305L10.7225 16.8925L10.2936 16.5697H10.7225L10.9369 16.0317L11.1514 16.5697H11.6875L11.2586 16.8925L11.3658 17.4305ZM12.867 16.0317L12.4381 15.7089L12.0092 16.0317L12.2236 15.4938L11.7947 15.171H12.3309L12.5453 14.633L12.7598 15.171H13.2959L12.867 15.4938V16.0317ZM12.7598 12.5887L12.9742 13.1267L12.5453 12.8039L12.1164 13.1267L12.3309 12.5887L11.9019 12.2659H12.4381L12.6525 11.7279L12.867 12.2659H13.4031L12.7598 12.5887ZM14.3681 17.4305L13.9392 17.1077L13.5103 17.4305L13.7248 16.8925L13.2959 16.5697H13.832L14.0465 16.0317L14.2609 16.5697H14.7971L14.3681 16.8925V17.4305ZM14.2609 14.095L14.4754 14.633L13.9392 14.2026L13.5103 14.5254L13.7248 13.9874L13.2959 13.6646H13.832L14.0465 13.1267L14.2609 13.6646H14.7971L14.2609 14.095ZM14.2609 11.19L14.4754 11.7279L13.9392 11.4051L13.5103 11.7279L13.7248 11.19L13.2959 10.8672H13.832L13.9392 10.3292L14.1537 10.8672H14.6898L14.2609 11.19ZM15.8693 16.0317L15.4404 15.7089L15.0115 16.0317L15.226 15.4938L14.7971 15.171H15.3332L15.5476 14.633L15.7621 15.171H16.2982L15.8693 15.4938V16.0317ZM15.7621 12.5887L15.9765 13.1267L15.5476 12.8039L15.0115 13.1267L15.226 12.5887L14.7971 12.2659H15.3332L15.5476 11.7279L15.7621 12.2659H16.2982L15.7621 12.5887ZM15.7621 9.79123L15.9765 10.3292L15.5476 10.0064L15.0115 10.2216L15.226 9.68363L14.7971 9.36085H15.3332L15.5476 8.82287L15.7621 9.36085H16.2982L15.7621 9.79123ZM17.4777 17.4305L17.0488 17.1077L16.6199 17.4305L16.8343 16.8925L16.4054 16.5697H16.9416L17.156 16.0317L17.3705 16.5697H17.9066L17.4777 16.8925V17.4305ZM17.2633 14.095L17.4777 14.633L17.0488 14.3102L16.6199 14.633L16.8343 14.095L16.4054 13.7722H16.9416L17.156 13.2343L17.3705 13.7722H17.9066L17.2633 14.095ZM17.2633 11.19L17.4777 11.7279L17.0488 11.4051L16.6199 11.7279L16.8343 11.19L16.4054 10.8672H16.9416L17.156 10.3292L17.3705 10.8672H17.9066L17.2633 11.19ZM17.2633 8.2849L17.4777 8.82287L17.0488 8.50009L16.6199 8.82287L16.8343 8.2849L16.4054 7.96211H16.9416L17.156 7.42414V7.96211H17.6922L17.2633 8.2849ZM18.9789 16.0317L18.55 15.7089L18.1211 16.0317L18.3355 15.4938L17.9066 15.171H18.4427L18.6572 14.633L18.8716 15.171H19.4078L18.9789 15.4938V16.0317ZM18.7644 12.5887L18.9789 13.1267L18.55 12.8039L18.1211 13.1267L18.3355 12.5887L17.9066 12.2659H18.4427L18.6572 11.7279L18.8716 12.2659H19.4078L18.7644 12.5887ZM18.7644 9.79123L18.9789 10.3292L18.55 10.0064L18.1211 10.3292L18.2283 9.79123L17.7994 9.46844H18.3355L18.55 8.93047L18.7644 9.46844H19.3005L18.7644 9.79123ZM18.7644 6.88616L18.9789 7.42414L18.55 7.10135L18.1211 7.42414L18.2283 6.88616L17.7994 6.56338H18.3355L18.55 6.0254L18.7644 6.56338H19.3005L18.7644 6.88616ZM20.48 17.4305L20.0511 17.1077L19.6222 17.4305L19.8367 16.8925L19.3005 16.5697H19.8367L20.0511 16.0317L20.2656 16.5697H20.8017L20.3728 16.8925L20.48 17.4305ZM20.2656 14.095L20.48 14.633L20.0511 14.3102L19.6222 14.633L19.8367 14.095L19.3005 13.7722H19.8367L20.0511 13.2343L20.1584 13.7722H20.6945L20.2656 14.095ZM20.2656 11.19L20.48 11.7279L20.0511 11.4051L19.6222 11.7279L19.8367 11.19L19.3005 10.8672H19.8367L20.0511 10.3292L20.2656 10.8672H20.8017L20.2656 11.19ZM20.2656 8.2849L20.48 8.82287L20.0511 8.50009L19.6222 8.82287L19.8367 8.2849L19.3005 7.96211H19.8367L20.0511 7.42414L20.2656 7.96211H20.8017L20.2656 8.2849ZM20.2656 5.48743L20.48 6.0254L20.0511 5.70262L19.6222 6.0254L19.8367 5.48743L19.3005 5.16464H19.8367L20.0511 4.62667L20.1584 5.16464H20.6945L20.2656 5.48743Z" fill="#3C3B6E"/>
<path d="M12.8676 10.2216L12.6531 9.68362L13.082 9.36084H12.5459C12.3314 9.68362 12.117 9.89881 12.0098 10.2216L12.4387 9.89881L12.8676 10.2216Z" fill="white"/>
<path d="M12.4381 11.728L12.2236 12.266H11.6875L12.2236 12.5888L12.0092 13.1268L12.4381 12.804L12.867 13.1268L12.7598 12.5888L13.1887 12.266H12.6525L12.4381 11.728Z" fill="white"/>
<path d="M12.6525 15.1708L12.4381 14.6328L12.2236 15.1708H11.6875L12.2236 15.4936L12.0092 16.0315L12.4381 15.7088L12.867 16.0315L12.7598 15.4936L13.1887 15.1708H12.6525Z" fill="white"/>
<path d="M15.4402 8.93018L15.333 9.46815H14.7969L15.2258 9.79094L15.0113 10.2213L15.4402 9.89853L15.8691 10.2213L15.7619 9.79094L16.1908 9.46815H15.6547L15.4402 8.93018Z" fill="white"/>
<path d="M15.4402 11.728L15.333 12.266H14.7969L15.2258 12.5888L15.0113 13.1268L15.4402 12.804L15.8691 13.1268L15.7619 12.5888L16.1908 12.266H15.6547L15.4402 11.728Z" fill="white"/>
<path d="M15.6547 15.1708L15.4402 14.6328L15.333 15.1708H14.7969L15.2258 15.4936L15.0113 16.0315L15.4402 15.7088L15.8691 16.0315L15.7619 15.4936L16.1908 15.1708H15.6547Z" fill="white"/>
<path d="M18.5504 8.93018L18.3359 9.46815H17.7998L18.2287 9.79094L18.1215 10.2213L18.5504 9.89853L18.9793 10.2213L18.7648 9.79094L19.1937 9.46815H18.6576L18.5504 8.93018Z" fill="white"/>
<path d="M18.5504 11.728L18.3359 12.266H17.7998L18.2287 12.5888L18.1215 13.1268L18.5504 12.804L18.9793 13.1268L18.7648 12.5888L19.1937 12.266H18.6576L18.5504 11.728Z" fill="white"/>
<path d="M18.6576 15.1708L18.5504 14.6328L18.3359 15.1708H17.7998L18.2287 15.4936L18.1215 16.0315L18.5504 15.7088L18.9793 16.0315L18.7648 15.4936L19.1937 15.1708H18.6576Z" fill="white"/>
<path d="M15.0117 7.42392L15.4406 7.10114L15.8695 7.42392L15.6551 6.88595L16.084 6.56316H15.5478V6.45557C15.3334 6.56316 15.2262 6.67076 15.0117 6.77835L15.1189 6.88595L15.0117 7.42392Z" fill="white"/>
<path d="M18.5504 6.02539L18.3359 6.56337H17.7998L18.2287 6.88615L18.1215 7.42412L18.5504 7.10134L18.9793 7.42412L18.7648 6.88615L19.1937 6.56337H18.6576L18.5504 6.02539Z" fill="white"/>
<path d="M10.5086 14.5252L10.9375 14.2024L11.3664 14.5252L11.1519 13.9872L11.5809 13.6644H11.0447L10.8303 13.1265L10.723 13.772H10.5086C10.5086 13.8796 10.5086 13.8796 10.4014 13.9872H10.6158L10.5086 14.5252Z" fill="white"/>
<path d="M11.0443 16.5697L10.9371 16.0317L10.7227 16.5697H10.1865L10.6154 16.8925L10.5082 17.4305L10.9371 17.1077L11.366 17.4305L11.1516 16.8925L11.5805 16.5697H11.0443Z" fill="white"/>
<path d="M13.5107 8.8227L13.9396 8.49992L14.3686 8.8227L14.1541 8.28473L14.583 7.96195H14.0469L13.9396 7.63916C13.9396 7.74676 13.9396 7.85435 13.8324 7.96195V8.06954C13.7252 8.17713 13.7252 8.17713 13.618 8.28473L13.7252 8.39232L13.5107 8.8227Z" fill="white"/>
<path d="M13.9393 10.3291L13.832 10.8671H13.2959L13.7248 11.1899L13.5104 11.7278L13.9393 11.4051L14.3682 11.7278L14.2609 11.1899L14.6898 10.8671H14.1537L13.9393 10.3291Z" fill="white"/>
<path d="M13.9393 13.2344L13.832 13.7723H13.2959L13.7248 14.0951L13.5104 14.5255L13.9393 14.2027L14.3682 14.5255L14.2609 14.0951L14.6898 13.7723H14.1537L13.9393 13.2344Z" fill="white"/>
<path d="M14.1537 16.5697L13.9393 16.0317L13.832 16.5697H13.2959L13.7248 16.8925L13.5104 17.4305L13.9393 17.1077L14.3682 17.4305L14.2609 16.8925L14.6898 16.5697H14.1537Z" fill="white"/>
<path d="M17.0494 7.42383L16.835 7.9618H16.2988L16.7277 8.28459L16.6205 8.82256L17.0494 8.49978L17.4783 8.82256L17.2639 8.28459L17.6928 7.9618H17.1566L17.0494 7.42383Z" fill="white"/>
<path d="M17.0494 10.3291L16.835 10.8671H16.2988L16.7277 11.1899L16.6205 11.7278L17.0494 11.4051L17.4783 11.7278L17.2639 11.1899L17.6928 10.8671H17.1566L17.0494 10.3291Z" fill="white"/>
<path d="M17.0494 13.2344L16.835 13.7723H16.2988L16.7277 14.0951L16.6205 14.5255L17.0494 14.2027L17.4783 14.5255L17.2639 14.0951L17.6928 13.7723H17.1566L17.0494 13.2344Z" fill="white"/>
<path d="M17.1566 16.5697L17.0494 16.0317L16.835 16.5697H16.2988L16.7277 16.8925L16.6205 17.4305L17.0494 17.1077L17.4783 17.4305L17.2639 16.8925L17.6928 16.5697H17.1566Z" fill="white"/>
<path d="M20.0514 7.42383L19.8369 7.9618H19.3008L19.7297 8.28459L19.6225 8.82256L20.0514 8.49978L20.4803 8.82256L20.2658 8.28459L20.8019 7.9618H20.1586L20.0514 7.42383Z" fill="white"/>
<path d="M20.0514 10.3291L19.8369 10.8671H19.3008L19.7297 11.1899L19.6225 11.7278L20.0514 11.4051L20.4803 11.7278L20.2658 11.1899L20.8019 10.8671H20.1586L20.0514 10.3291Z" fill="white"/>
<path d="M20.0514 13.2344L19.8369 13.7723H19.3008L19.7297 14.0951L19.6225 14.5255L20.0514 14.2027L20.4803 14.5255L20.2658 14.0951L20.8019 13.7723H20.1586L20.0514 13.2344Z" fill="white"/>
<path d="M20.1586 16.5697L20.0514 16.0317L19.8369 16.5697H19.3008L19.7297 16.8925L19.6225 17.4305L20.0514 17.1077L20.4803 17.4305L20.2658 16.8925L20.8019 16.5697H20.1586Z" fill="white"/>
<path d="M17.0488 5.59507L17.4777 5.91786L17.2633 5.37988H17.3705C17.1561 5.48748 16.9416 5.59507 16.6199 5.70267L16.5127 5.91786L17.0488 5.59507Z" fill="white"/>
<path d="M20.0514 4.62646L19.8369 5.16444H19.3008L19.7297 5.48722L19.6225 5.9176L20.0514 5.59482L20.4803 5.9176L20.2658 5.48722L20.8019 5.16444H20.1586L20.0514 4.62646Z" fill="white"/>
</svg>
