<svg width="214" height="215" viewBox="0 0 214 215" fill="none" xmlns="http://www.w3.org/2000/svg">
<g id="counter-strike-global-offensive-2-logo 1" clip-path="url(#clip0_38_2733)">
<g id="Group">
<path id="Vector" d="M106.769 63.0996C108.185 62.6066 109.732 63.0181 111.029 63.6612C111.936 64.2477 112.843 64.8405 113.858 65.2242C113.936 65.3709 114.097 65.661 114.175 65.8045C114.135 65.9013 114.057 66.1009 114.017 66.1976C114.74 67.8512 115.203 69.8105 114.501 71.548C114.023 72.1345 113.191 72.2253 112.517 72.4524C112.514 73.2917 112.647 74.1219 112.719 74.9549C114.16 75.1889 115.379 74.1812 116.805 74.281C116.997 73.4792 117.149 72.6643 117.405 71.8784C117.7 72.3994 117.712 72.9987 117.715 73.5853C118.088 73.6914 118.467 73.7881 118.848 73.8814C118.852 74.0252 118.855 74.3122 118.855 74.4557C125.103 74.4932 131.347 74.4273 137.596 74.49C137.58 74.7047 137.55 75.1356 137.537 75.3511C137.699 75.3511 138.028 75.3543 138.192 75.3543C138.186 74.2127 138.192 73.0674 138.189 71.9258C138.347 71.9192 138.658 71.9099 138.813 71.9068C138.817 72.8053 138.82 73.7038 138.829 74.6027C138.965 74.7712 139.238 75.1078 139.376 75.2763C139.478 75.1543 139.683 74.9147 139.785 74.7927C140.26 75.2391 139.99 75.8506 139.969 76.3991C141.717 76.3801 143.484 76.4986 145.226 76.3551C145.357 76.2584 145.618 76.0681 145.748 75.9717C145.987 76.065 146.229 76.1589 146.468 76.2556C147.254 76.2363 148.043 76.2338 148.832 76.2306C148.815 76.6394 148.803 77.0477 148.788 77.4568C147.772 77.4409 146.753 77.4193 145.754 77.5937C145.108 77.0356 144.241 77.2128 143.462 77.1916C142.263 77.2477 141.027 77.0356 139.866 77.419C139.176 77.6125 138.419 77.566 137.81 77.1725C137.663 77.5376 137.888 78.355 137.275 78.3235C134.865 78.355 132.459 78.302 130.052 78.3394C129.723 78.5141 129.391 78.6795 129.062 78.8414C128.714 79.8834 127.717 80.5789 126.869 81.2153C126.763 82.8158 127.394 84.3103 127.639 85.8637C127.164 86.0006 126.686 86.1417 126.217 86.2976C125.543 87.895 125.956 90.0755 124.397 91.19C123.202 91.8885 122.41 93.4079 120.798 93.168C121.618 93.8544 120.574 93.6391 120.683 93.09C117.767 92.831 115.311 91.112 112.777 89.8019C112.659 90.5192 112.473 91.2246 112.28 91.9266C113.243 92.1107 114.038 92.822 114.208 93.8141C114.516 95.9765 113.901 98.1233 113.91 100.291C113.979 101.564 113.435 102.731 112.758 103.77C112.165 104.444 111.23 103.751 110.519 103.651C110.357 103.966 110.199 104.282 110.044 104.6C110.246 105.448 110.333 106.331 110.615 107.161C112.202 108.924 113.646 110.833 114.755 112.939C115.896 115.324 116.913 117.767 117.802 120.258C117.888 120.742 118.342 120.916 118.74 121.091C118.792 121.59 118.845 122.089 118.895 122.595C119.05 122.822 119.209 123.05 119.37 123.281C119.466 126.357 119.091 129.421 118.615 132.456C118.32 133.826 119.118 135.164 118.795 136.543C118.832 137.249 118.348 137.783 118.121 138.407C118.078 139.864 118.006 141.339 118.165 142.794C118.276 143.861 119.174 144.547 119.783 145.343C120.448 146.051 121.004 147.002 122.01 147.255C122.957 147.539 123.861 147.95 124.695 148.491C124.95 149.124 124.903 149.795 124.782 150.453C122.962 150.79 121.105 150.621 119.267 150.65C117.85 150.724 116.587 149.96 115.211 149.801C113.879 149.767 112.254 150.431 111.23 149.233C111.664 147.571 111.699 145.786 112.494 144.235C112.748 142.478 112.264 140.697 112.366 138.925C112.215 138.797 111.91 138.541 111.758 138.412C111.867 137.255 111.298 136.225 111.108 135.118C110.985 133.501 110.838 131.885 110.652 130.276C110.506 129.492 110.91 128.775 111.459 128.254C111.509 127.349 111.631 126.454 111.717 125.555C111.584 124.972 111.121 124.538 110.823 124.039C109.826 124.461 108.481 124.261 107.888 123.281C106.482 121.178 105.078 119.075 103.656 116.985C103.097 116.948 102.507 117.007 101.985 116.782C101.383 116.161 101.069 115.335 100.684 114.58C100.134 115.2 100.174 116.152 99.5229 116.717C98.1441 118.046 97.7777 119.999 97.0572 121.702C96.5051 122.806 96.8156 124.139 96.2001 125.215C95.8709 125.795 95.0449 125.911 94.8275 126.573C94.5418 127.287 94.2065 128.026 93.5388 128.461C92.8152 128.937 92.623 129.843 92.3004 130.591C92.0054 131.281 92.4432 132.004 92.3407 132.713C91.8811 134.963 90.4558 136.844 89.8564 139.047C89.5831 140.039 89.1916 141.156 88.0426 141.367C86.7352 143.714 86.015 146.584 86.7541 149.226C87.2075 150.056 87.1827 150.989 87.0429 151.903C84.9657 152.065 82.8351 152.346 80.7952 151.763C80.3169 150.811 80.3853 149.691 80.4846 148.662C81.1147 145.957 81.9504 143.299 82.4625 140.566C81.8228 139.995 81.9721 139.121 81.9842 138.357C81.9628 136.931 82.9283 135.789 83.599 134.619C83.8509 133.418 83.7329 132.127 84.3505 131.025C85.0775 129.646 85.6921 128.155 86.8134 127.041C87.0274 126.058 87.7485 125.316 88.0398 124.37C88.3503 123.533 87.8069 122.685 87.9162 121.83C88.1829 119.237 88.6521 116.67 89.0589 114.096C88.2891 113.45 88.5372 112.424 88.2919 111.553C88.413 111.21 88.5652 110.883 88.7484 110.564C88.5559 110.386 88.3668 110.205 88.1739 110.028C88.3602 109.113 88.3074 107.475 89.7049 107.772C89.7918 104.743 88.7453 101.81 89.0962 98.777C89.2825 98.995 89.4654 99.2169 89.6521 99.4384L89.5527 98.4119C90.1365 98.0999 90.7576 97.8597 91.4097 97.738C90.3477 97.598 89.3136 97.3265 88.2727 97.0829C88.0211 96.418 88.1615 95.7101 88.254 95.03C88.6577 92.7337 88.8068 90.4063 88.8906 88.0788C90.0676 87.6676 91.3656 88.0167 92.5146 87.4673C92.1581 84.5564 92.0681 81.518 93.0985 78.7253C93.9276 76.3476 95.5116 74.0545 97.9832 73.2187C99.1509 72.9382 100.62 72.6228 101.445 73.7615C101.672 73.5525 101.899 73.3372 102.125 73.1282C100.241 69.3675 102.492 63.8733 106.769 63.0996ZM121.851 79.4105C121.354 79.7162 120.867 80.0659 121.389 80.6213C121.135 80.7739 120.879 80.9208 120.622 81.0609C120.218 81.3729 119.311 81.5504 119.417 82.1812C119.87 82.9129 120.261 83.682 120.585 84.4803C121.575 83.6632 122.364 82.5644 122.898 81.4013C123.01 81.2858 123.237 81.055 123.348 80.9423C123.298 80.4088 123.18 79.8875 122.972 79.3949C122.6 79.4014 122.224 79.4073 121.851 79.4105Z" fill="white"/>
<path id="Vector_2" d="M130.963 107.34C132.385 105.537 134.683 104.538 136.962 104.576C143.896 104.582 150.834 104.573 157.768 104.579C161.15 104.651 164.448 107.306 164.839 110.757C155.24 110.725 145.644 110.785 136.049 110.725C136.04 117.177 136.027 123.632 136.049 130.088C143.415 130.075 150.78 130.063 158.147 130.094C158.119 127.782 158.156 125.47 158.125 123.159C154.483 123.179 150.84 123.187 147.197 123.159C144.276 123.046 142.102 120.51 141.444 117.808C149.276 117.78 157.104 117.777 164.935 117.811C164.902 121.764 164.955 125.72 164.908 129.673C164.814 133.002 161.964 135.932 158.697 136.266C151.141 136.266 143.583 136.263 136.027 136.263C133.77 136.247 131.773 134.815 130.5 133.027C129.63 131.763 129.434 130.194 129.31 128.706C129.298 123.402 129.317 118.095 129.304 112.791C129.332 110.869 129.671 108.838 130.963 107.34ZM176.776 104.794C177.556 104.582 178.369 104.566 179.174 104.576C185.584 104.595 191.996 104.554 198.406 104.591C202.039 104.747 205.231 107.899 205.371 111.561C205.378 117.48 205.378 123.401 205.371 129.323C205.306 132.952 202.108 136.334 198.441 136.272C191.392 136.24 184.342 136.293 177.292 136.247C173.777 135.853 171.079 132.481 171.054 128.99C171.004 123.592 171.06 118.188 171.026 112.791C170.998 111.2 171.284 109.565 172.122 108.192C173.106 106.467 174.87 105.259 176.776 104.794ZM177.882 110.554C177.895 117.212 177.854 123.872 177.901 130.53C184.785 130.549 191.674 130.527 198.558 130.539C198.579 123.875 198.561 117.211 198.567 110.544C191.673 110.541 184.776 110.529 177.882 110.554ZM0.0109549 112.139C0.157219 108.529 3.16604 105.137 6.8273 104.997C13.6682 104.99 20.5125 104.99 27.354 105C31.0494 104.963 34.1275 108.317 34.4063 111.914C33.9126 111.955 33.4188 111.986 32.925 111.992C24.7796 111.983 16.6341 111.995 8.49148 111.986C8.48807 117.801 8.45763 123.616 8.50701 129.432C17.1527 129.419 25.7951 129.413 34.4405 129.435C34.1952 133.163 31.0708 136.471 27.3046 136.618C21.1062 136.705 14.9079 136.621 8.70917 136.658C7.16579 136.711 5.57582 136.518 4.18492 135.809C1.78755 134.577 0.0916952 132.066 0.00847055 129.339C0.00163867 123.604 -0.00767752 117.873 0.0109549 112.139ZM40.9898 109.312C42.1294 106.813 44.738 104.957 47.5145 104.991C54.3464 104.997 61.1814 104.991 68.0166 104.994C71.5844 105.016 74.7271 108.154 74.979 111.696C65.9668 111.824 56.9487 111.714 47.9341 111.749C47.8934 113.571 47.9123 115.393 47.9092 117.218C54.6107 117.239 61.3152 117.224 68.0166 117.224C70.0038 117.302 72.0909 117.942 73.4446 119.486C74.9659 120.853 75.609 122.934 75.6587 124.937C75.6926 126.936 75.6926 128.946 75.3696 130.926C74.6305 134.134 71.5779 136.524 68.3207 136.627C61.8059 136.689 55.287 136.633 48.7722 136.658C47.2353 136.69 45.6454 136.468 44.2818 135.716C42.1204 134.583 40.5677 132.305 40.3538 129.859C49.5271 129.904 58.7036 129.888 67.8769 129.866C67.8986 127.925 67.8862 125.985 67.8862 124.044C61.0978 123.997 54.3063 124.038 47.5145 124.025C43.6113 124.056 40.1581 120.453 40.2631 116.544C40.3997 114.135 39.8473 111.549 40.9898 109.312ZM207.492 105.64C208.355 105.618 209.228 105.584 210.088 105.715C209.688 105.818 209.28 105.871 208.871 105.877C208.818 106.816 208.812 107.756 208.824 108.694C208.734 108.694 208.558 108.694 208.47 108.697C208.477 107.733 208.486 106.769 208.473 105.808C208.231 105.827 207.75 105.871 207.511 105.889L207.492 105.64ZM210.572 105.605C210.756 105.615 211.128 105.633 211.315 105.643C211.579 106.488 211.89 107.318 212.275 108.12C212.635 107.312 212.871 106.45 213.268 105.665C213.442 105.64 213.79 105.587 213.963 105.562C213.867 106.71 214.262 107.98 213.644 109.025C213.532 108.008 213.579 106.984 213.513 105.964C213.041 106.916 212.818 107.985 212.2 108.866C211.728 107.961 211.526 106.931 210.961 106.077C210.924 106.988 210.943 107.902 210.93 108.816L210.598 108.778C210.598 107.721 210.582 106.663 210.572 105.605Z" fill="white"/>
</g>
</g>
<defs>
<clipPath id="clip0_38_2733">
<rect width="214" height="215" fill="white"/>
</clipPath>
</defs>
</svg>
