<svg width="212" height="59" viewBox="0 0 212 59" fill="none" xmlns="http://www.w3.org/2000/svg">
<g id="fortnite-1 1" clip-path="url(#clip0_38_2714)">
<path id="Vector" d="M0.0517578 29.5C0.0517578 45.7283 0.0919657 59 0.145576 59C0.225992 59 11.1491 56.9798 12.4894 56.7122L13.1863 56.5785V34.9184H21.496V32.9383C21.496 31.8546 21.5362 29.0317 21.5898 26.6503L21.6702 22.3424H13.1863V12.8435H18.0783C20.7722 12.8435 22.9703 12.8168 22.9703 12.7766C22.9703 12.6295 24.0425 1.20408 24.1095 0.628798L24.1899 0H0.0517578V29.5ZM200.528 1.72585L189.833 2.60884V55.9095L190.275 55.9764C190.664 56.0433 211.371 57.5417 211.787 57.5283C211.907 57.5283 211.947 56.1102 211.947 50.9059V44.2834H202.834V34.6508H210.607V23.1451H202.566V15.5193L202.874 15.4658C203.035 15.4256 204.402 15.3721 205.916 15.3186C207.431 15.2785 209.401 15.2116 210.312 15.158L211.947 15.0778V0.802721L211.585 0.8161C211.371 0.829478 206.399 1.23084 200.528 1.72585ZM131.867 3.57211C132.001 4.90998 133.529 25.0717 133.502 25.0984C133.488 25.1252 131.518 20.2955 129.119 14.3687C126.733 8.44195 124.723 3.53197 124.669 3.43832C124.589 3.29116 120.89 3.97347 114.818 5.25782L114.242 5.37823V51.3741H126.171L126.104 50.4109C125.969 48.6181 125.474 33.7946 125.527 33.2059C125.567 32.6841 125.969 33.5939 129.776 42.7717C132.081 48.3506 134.038 52.9662 134.091 53.0465C134.172 53.1268 136.035 53.0063 139.198 52.7388C141.945 52.498 144.197 52.2839 144.197 52.2705C144.21 52.2571 144.143 42.6111 144.05 30.8379C143.956 19.0646 143.875 7.94694 143.875 6.11406L143.862 2.80952H131.786L131.867 3.57211ZM37.5121 3.62562C29.4973 4.16077 25.0879 9.63265 23.694 20.737C23.4125 23.0381 23.2919 30.8512 23.493 33.5805C24.1631 42.4372 26.5622 48.19 30.8242 51.12C33.116 52.6853 36.5605 53.5281 39.9648 53.3274C43.8382 53.1134 46.4785 52.0163 48.8507 49.6483C50.7941 47.7084 51.8529 45.8889 52.8715 42.785C54.2922 38.4503 54.9355 31.9751 54.6139 25.2322C54.252 17.6866 53.1128 12.9907 50.7673 9.39184C48.5291 5.96689 44.9908 3.91995 40.8628 3.66576C40.206 3.62562 39.5091 3.58549 39.3215 3.55873C39.1338 3.54535 38.3297 3.57211 37.5121 3.62562ZM39.4019 14.1413C40.3803 15.1982 40.7958 19.4125 40.7958 28.4297C40.7958 39.534 40.0988 44.1497 38.5709 43.1596C37.9142 42.7181 37.4183 40.5642 37.177 36.9921C37.0028 34.3832 37.0028 22.4361 37.177 19.9342C37.4317 16.4023 37.8874 14.449 38.5709 13.9807C38.9462 13.7132 39.0132 13.7265 39.4019 14.1413ZM56.3428 27.9481V52.3107H68.633L68.7134 50.6116C68.767 49.6617 68.8743 46.5846 68.9547 43.7483C69.0351 40.912 69.1423 38.4236 69.1959 38.2229C69.2629 37.942 69.8393 39.7481 71.6084 45.8488C72.8951 50.2503 73.9807 53.9027 74.0343 53.9562C74.1415 54.0766 86.7132 53.0866 86.8472 52.9528C86.8874 52.8993 85.4935 48.5245 83.7512 43.1998L80.5882 33.5404L81.2583 32.9517C83.4831 31.0118 85.3193 27.2658 85.842 23.5599C86.0698 21.941 85.9224 17.9274 85.5739 16.4424C84.2337 10.6227 80.682 6.10068 76.1519 4.41497C74.1817 3.69252 74.3425 3.7059 65.0277 3.65238L56.3428 3.59887V27.9481ZM70.1609 15.1313C71.1125 15.5995 71.8899 16.8036 72.3053 18.4626C72.5868 19.573 72.5466 23.0916 72.2383 24.2154C71.662 26.3293 70.6434 27.5601 69.1155 28.0283L68.8073 28.1086V14.7166L69.2495 14.8102C69.4774 14.8503 69.8929 14.9975 70.1609 15.1313ZM86.2307 9.96712V16.1882H93.066V52.0431H105.933V18.3288H112.902V5.88662L112.607 5.83311C112.326 5.76621 86.7668 3.73265 86.4049 3.74603C86.2709 3.74603 86.2307 5.0839 86.2307 9.96712ZM146.677 29.3662V53.6485H159.945V5.0839H146.677V29.3662ZM175.09 6.76961C167.826 7.1576 161.781 7.47868 161.661 7.47868C161.433 7.49206 161.419 7.88005 161.419 13.78V20.068H168.255V55.254H181.255V18.5964H188.493V12.3084C188.493 8.84331 188.453 6.03379 188.399 6.03379C188.332 6.04716 182.354 6.36825 175.09 6.76961Z" fill="white"/>
</g>
<defs>
<clipPath id="clip0_38_2714">
<rect width="212" height="59" fill="white"/>
</clipPath>
</defs>
</svg>
