<svg width="216" height="82" viewBox="0 0 216 82" fill="none" xmlns="http://www.w3.org/2000/svg">
<g id="League_of_Legends_2019_vector 2" clip-path="url(#clip0_38_2716)">
<g id="Group">
<path id="Vector" d="M204.048 58.9105C200.376 57.9812 197.208 57.1949 197.208 54.1925C197.208 51.8335 199.008 50.3324 201.888 50.3324C204.552 50.1894 207 51.9765 207.504 54.6214L214.704 51.1902C212.76 46.4722 208.08 43.6128 202.104 43.6128C194.328 43.6128 188.928 48.3308 188.928 55.0503C188.928 63.2711 194.904 64.8437 200.232 66.2019C203.976 67.1312 207.144 67.989 207.144 71.0629C207.144 73.6363 205.056 75.2805 201.888 75.2805C198.72 75.2805 196.056 73.5648 195.336 70.9914L188.136 74.4227C190.152 79.1406 195.264 82 201.6 82C210.024 82 215.424 77.3535 215.424 70.0621C215.424 61.7699 209.088 60.1972 204.048 58.9105Z" fill="white"/>
<path id="Vector_2" d="M216 10.3721V14.1608H209.88V17.735H215.208L214.2 21.3807H209.88V27.028H205.704V10.3721H216Z" fill="white"/>
<path id="Vector_3" d="M195.192 14.2323C197.784 14.2323 199.872 16.3054 199.872 18.8788C199.872 21.4523 197.784 23.5253 195.192 23.5253C192.6 23.5253 190.512 21.4523 190.512 18.8788C190.512 16.3054 192.6 14.2323 195.192 14.2323ZM195.192 27.5285C200.016 27.5285 203.904 23.5968 203.904 18.8074C203.904 14.0179 199.944 10.1577 195.12 10.1577C190.296 10.1577 186.408 14.0894 186.408 18.8074C186.408 23.6683 190.368 27.6 195.192 27.5285Z" fill="white"/>
<path id="Vector_4" d="M118.44 80.9277H126.216V56.5514L143.856 80.9277H151.992V43.8271H144.144V68.5608L126.72 43.8271H116.64L118.44 47.4729V80.9277Z" fill="white"/>
<path id="Vector_5" d="M178.344 66.7739C177.264 69.4188 175.104 71.4919 172.512 72.6356C171.144 73.2075 169.704 73.4935 168.192 73.4935H163.728V51.3332H168.192C169.704 51.3332 171.144 51.6192 172.512 52.191C175.176 53.2633 177.264 55.4079 178.344 58.0528C179.496 60.9122 179.496 63.986 178.344 66.7739ZM175.752 45.3285C173.376 44.3992 170.856 43.8988 168.336 43.7559H155.592V80.8564H168.336C173.376 80.8564 178.2 78.9978 181.872 75.5665C183.6 73.9224 185.04 71.9208 185.976 69.7048C189.072 62.6993 187.416 54.55 181.872 49.2602C180.072 47.616 178.056 46.2578 175.752 45.3285Z" fill="white"/>
<path id="Vector_6" d="M49.8242 80.9277H27.5762V43.8271H49.8242V51.0471H35.7122V58.553H48.6002L46.6562 65.5585H35.7122V73.7077L49.8242 73.7792V80.9277Z" fill="white"/>
<path id="Vector_7" d="M100.656 51.0471H114.768V43.8271H92.5918V80.9277H114.768V73.7792L100.656 73.7077V65.5585H111.6L113.544 58.553H100.656V51.0471Z" fill="white"/>
<path id="Vector_8" d="M128.88 29.3155C128.16 27.2425 127.8 25.0979 127.872 22.9534L128.016 0.0783206H136.08L136.008 22.596C136.008 25.0979 136.584 27.0995 137.736 28.5292C140.472 31.3886 145.08 31.4601 147.888 28.6722L148.032 28.5292C149.256 27.0995 149.832 25.0979 149.832 22.596L149.904 0.00683594H158.112L157.968 23.0964C157.968 25.2409 157.68 27.3854 156.96 29.4585C156.312 31.2456 155.232 32.8898 153.936 34.3195C152.568 35.6777 150.984 36.7499 149.184 37.3933C145.08 38.823 140.616 38.823 136.512 37.3218C134.712 36.6069 133.128 35.6061 131.832 34.1764C130.536 32.8182 129.528 31.1741 128.88 29.3155Z" fill="white"/>
<path id="Vector_9" d="M88.4163 26.456C87.4083 24.097 86.9043 21.5236 86.9043 19.0216C86.9043 16.4482 87.4803 13.9462 88.4883 11.5872C89.4963 9.29972 90.9363 7.22667 92.7363 5.51103C94.5363 3.72392 96.6963 2.36571 99.0003 1.43641C101.376 0.435627 103.968 -0.0647654 106.632 0.00671924C110.16 -0.0648047 113.688 0.864535 116.784 2.58017C119.664 4.22431 122.04 6.65479 123.552 9.65714L116.208 13.0884C115.344 11.3728 113.976 9.94308 112.32 8.9423C110.592 7.94151 108.576 7.5126 106.56 7.5126C105.048 7.5126 103.464 7.79855 102.096 8.37042C100.728 8.9423 99.5043 9.80011 98.4963 10.8724C97.4163 11.9446 96.6243 13.2314 96.0483 14.5896C94.8243 17.5204 94.8243 20.7373 95.9763 23.6681C97.0563 26.456 99.2883 28.7435 102.024 29.9588C103.464 30.6021 104.976 30.9596 106.56 30.8881C108.864 30.9596 111.168 30.2447 113.04 28.958C114.768 27.7427 115.992 25.8842 116.496 23.8111H103.176L106.488 17.0915H125.064C125.136 18.5212 125.064 21.5951 124.992 22.2384C124.776 23.9541 124.344 25.6697 123.696 27.3138C121.896 31.7459 118.368 35.1772 113.904 36.9643C106.56 39.8951 98.2083 38.1795 92.5923 32.6037C90.7923 30.8166 89.4243 28.7435 88.4163 26.456Z" fill="white"/>
<path id="Vector_10" d="M1.872 33.4614V3.93829L0 0.078125H9.936V30.0302H24.84L22.752 37.3216H0L1.872 33.4614Z" fill="white"/>
<path id="Vector_11" d="M1.872 77.0674V47.5443L0 43.6841H9.936V73.6361H24.84L22.752 80.9276H0L1.872 77.0674Z" fill="white"/>
<path id="Vector_12" d="M49.8242 37.3222H27.5762V0.22168H49.8242V7.44163H35.7122V14.9475H48.6002L46.6562 21.953H35.7122V30.0308L49.8242 30.1023V37.3222Z" fill="white"/>
<path id="Vector_13" d="M183.888 37.3222H161.712V0.22168H183.96V7.44163H169.848V14.9475H182.736L180.792 21.953H169.848V30.0308L183.96 30.1023V37.3222L183.888 37.3222Z" fill="white"/>
<path id="Vector_14" d="M71.136 10.5149L75.816 23.0247H66.24L71.136 10.5149ZM60.696 37.3216L63.504 30.1017H78.48L81.36 37.3216H89.784L74.736 0.078125H63.216L65.664 4.93908L52.416 37.3216H60.696Z" fill="white"/>
<path id="Vector_15" d="M66.6718 81.4995C68.0399 81.7855 69.4079 81.9284 70.8479 81.9284C73.3679 81.9999 75.8878 81.4995 78.2638 80.5702C82.7278 78.7831 86.2559 75.3519 88.0559 70.9198C88.7039 69.2757 89.1358 67.56 89.3519 65.8444C89.4958 64.1288 89.4958 62.4131 89.4239 60.626H70.8479V60.6975L67.5359 67.4171H80.7838C80.2799 69.4901 79.0559 71.3487 77.3279 72.564C75.4559 73.9222 73.2239 74.5655 70.9199 74.494C70.1999 74.494 69.5518 74.4226 68.8319 74.2796L67.1759 73.8507C66.8879 73.7792 66.6718 73.6362 66.3838 73.5648C63.6478 72.3495 61.4159 70.1335 60.3359 67.2741C59.1839 64.3432 59.1838 61.0549 60.4078 58.1241C60.9838 56.7659 61.8478 55.4791 62.8558 54.4069C63.8638 53.3346 65.1598 52.5483 66.5278 51.9764C67.9678 51.4045 69.4799 51.1186 70.9918 51.1186C73.0079 51.0471 75.0238 51.5475 76.7519 52.5483C78.4079 53.5491 79.7758 54.9787 80.6398 56.6944L87.9838 53.2631C86.4718 50.2608 84.1678 47.8303 81.2158 46.1861C78.1198 44.4705 74.6638 43.6127 71.0638 43.6127C65.8798 43.5412 60.9118 45.5428 57.1678 49.1885C55.3678 50.9041 53.9278 52.9772 52.9198 55.2647C50.8318 59.9827 50.8318 65.4155 52.8478 70.1335C53.8558 72.421 55.2238 74.494 56.9518 76.2812C58.5358 77.8538 60.4078 79.1405 62.4238 80.1413C63.8398 80.7746 65.2559 81.2884 66.6718 81.4995Z" fill="white"/>
</g>
</g>
<defs>
<clipPath id="clip0_38_2716">
<rect width="216" height="82" fill="white"/>
</clipPath>
</defs>
</svg>
