<svg width="182" height="124" viewBox="0 0 182 124" fill="none" xmlns="http://www.w3.org/2000/svg">
<g id="Valorant_logo_-_black_color_version 1" clip-path="url(#clip0_38_2737)">
<g id="ff4655ff">
<path id="Vector" d="M43.1597 1.66282C43.7171 1.33117 44.0723 2.00149 44.373 2.35419C63.7213 26.5083 83.0924 50.6448 102.439 74.7989C102.836 75.1428 102.536 75.878 101.999 75.7991C92.7358 75.8096 83.4705 75.8026 74.2069 75.8026C73.4649 75.8113 72.7545 75.4428 72.299 74.8655C62.6873 62.8824 53.0809 50.894 43.4692 38.909C43.0612 38.4247 42.8502 37.7983 42.8766 37.1683C42.8766 25.5905 42.8801 14.011 42.873 2.43315C42.8783 2.15941 42.8678 1.80496 43.1597 1.66282Z" fill="white"/>
<path id="Vector_2" d="M132.643 1.60679C133.039 1.45763 133.475 1.82262 133.417 2.23674C133.431 13.8198 133.415 25.4029 133.424 36.986C133.451 37.6422 133.306 38.3213 132.879 38.8372C129.958 42.4836 127.034 46.1282 124.113 49.7728C123.626 50.4045 122.83 50.7537 122.033 50.7133C112.831 50.7046 103.627 50.7186 94.4252 50.7063C93.8819 50.7906 93.5724 50.0588 93.9733 49.7061C106.734 33.7748 119.506 17.8487 132.274 1.92089C132.371 1.78402 132.494 1.67873 132.643 1.60679Z" fill="white"/>
<path id="Vector_3" d="M69.0213 95.7228C71.8138 95.2946 74.7451 95.7877 77.228 97.1423C79.6354 98.4426 81.6136 100.518 82.79 102.987C84.0948 105.695 84.399 108.861 83.6622 111.773C82.9624 114.593 81.269 117.152 78.9584 118.919C75.0071 122.025 69.2165 122.483 64.8169 120.056C62.2847 118.699 60.2308 116.483 59.072 113.858C57.6125 110.598 57.5931 106.732 59.0157 103.454C60.7302 99.3902 64.6445 96.3527 69.0213 95.7228ZM69.7265 100.11C66.9235 100.533 64.4581 102.519 63.3591 105.114C62.2232 107.697 62.4465 110.829 63.9605 113.214C65.202 115.223 67.3192 116.687 69.6614 117.062C72.0424 117.48 74.5781 116.745 76.3928 115.158C78.4625 113.391 79.5826 110.605 79.3487 107.899C79.1729 105.484 77.9314 103.168 75.9954 101.703C74.2404 100.348 71.9193 99.7499 69.7265 100.11Z" fill="white"/>
<path id="Vector_4" d="M0 96.3211C1.08672 96.0263 2.235 96.2649 3.34634 96.1807C3.74199 96.2351 4.34338 96.0315 4.56671 96.4772C4.64408 97.0581 4.59484 97.6459 4.60187 98.232C4.60187 103.34 4.60012 108.45 4.60187 113.558C9.08945 107.962 13.5717 102.363 18.0541 96.7633C18.2879 96.472 18.6062 96.214 18.9983 96.207C20.2855 96.1509 21.5745 96.214 22.8634 96.1824C23.3452 96.1912 23.8798 96.1 24.2913 96.4193C22.7913 98.3917 21.2017 100.296 19.6648 102.24C15.0576 107.995 10.4487 113.749 5.83983 119.503C5.49693 119.921 5.19623 120.38 4.78651 120.742C4.38383 121.074 3.82288 120.97 3.34106 120.996C2.22796 120.958 1.10783 121.056 0 120.919V96.3211Z" fill="white"/>
<path id="Vector_5" d="M31.1594 97.2123C31.6377 96.5648 32.422 96.1717 33.2291 96.1893C34.2244 96.191 35.2214 96.1717 36.2167 96.198C36.5596 96.1612 36.7513 96.5156 36.7073 96.8175C36.7073 104.661 36.7073 112.507 36.7073 120.35C36.753 120.652 36.5684 121.021 36.2167 120.982C34.984 120.996 33.7514 120.996 32.5187 120.98C32.0668 120.993 31.7098 120.675 31.4566 120.336C29.3253 117.666 27.1835 115.004 25.0523 112.333C22.8824 115.03 20.7247 117.736 18.5601 120.438C18.328 120.735 17.9921 120.984 17.5982 120.979C16.1862 121.01 14.7724 120.972 13.3586 120.994C13.0122 120.972 12.5778 121.082 12.3633 120.722C18.5917 112.858 24.9046 105.056 31.1594 97.2123ZM27.6478 108.59C29.1108 110.406 30.5527 112.238 32.0263 114.044C32.0369 110.403 32.0333 106.763 32.0298 103.122C30.565 104.942 29.1055 106.765 27.6478 108.59Z" fill="white"/>
<path id="Vector_6" d="M42.2907 96.8123C42.2573 96.535 42.4085 96.1946 42.7303 96.2016C43.97 96.1718 45.215 96.1841 46.4565 96.1964C46.8117 96.1578 47.0332 96.5087 46.977 96.8333C46.984 103.407 46.9805 109.98 46.9787 116.555C50.4253 116.567 53.8719 116.546 57.3167 116.564C57.6121 116.501 57.7967 116.874 57.5629 117.073C56.666 118.225 55.7393 119.357 54.8267 120.501C54.5506 120.873 54.0829 121.024 53.6327 120.991C49.9997 120.979 46.365 121.005 42.732 120.979C42.3979 120.993 42.259 120.631 42.2907 120.352C42.2907 112.507 42.2889 104.66 42.2907 96.8123Z" fill="white"/>
<path id="Vector_7" d="M88.2167 96.8209C88.1358 96.4594 88.4277 96.1313 88.7952 96.1909C95.0764 96.1839 101.356 96.1874 107.635 96.1892C107.925 96.1488 108.268 96.3296 108.24 96.6594C108.26 98.358 108.244 100.058 108.247 101.757C108.284 102.162 108.07 102.519 107.82 102.817C106.007 105.054 104.224 107.314 102.406 109.548C102.316 109.706 102.017 109.915 102.244 110.097C104.991 113.544 107.76 116.974 110.503 120.422C110.702 120.587 110.706 120.98 110.38 120.971C108.752 121.007 107.122 120.989 105.494 120.98C104.855 120.989 104.495 120.398 104.141 119.962C101.62 116.806 99.0963 113.651 96.5658 110.503C96.3777 110.271 96.0893 109.936 96.3513 109.65C98.734 106.632 101.161 103.645 103.556 100.634C100.009 100.618 96.4603 100.664 92.9153 100.611C92.852 107.244 92.9188 113.881 92.8819 120.513C92.9223 120.822 92.6023 121.028 92.3244 120.985C91.0935 120.985 89.8626 121.005 88.6317 120.977C88.3046 120.98 88.1727 120.613 88.2149 120.341C88.2167 112.501 88.2149 104.661 88.2167 96.8209Z" fill="white"/>
<path id="Vector_8" d="M114.504 96.8336C114.447 96.5177 114.653 96.1562 115.008 96.1966C116.181 96.1755 117.358 96.1878 118.532 96.1913C118.972 96.165 119.397 96.3703 119.656 96.7265C125.517 104.044 131.376 111.363 137.237 118.68C137.742 119.356 138.347 119.963 138.784 120.688C138.742 120.756 138.658 120.893 138.616 120.961C137.195 121.033 135.769 120.961 134.346 120.993C133.785 121.002 133.106 121.049 132.735 120.537C130.534 117.812 128.353 115.069 126.162 112.335C123.992 115.03 121.833 117.736 119.67 120.437C119.438 120.737 119.098 120.982 118.705 120.981C117.477 120.998 116.25 120.993 115.024 120.984C114.658 121.035 114.446 120.667 114.504 120.345C114.504 112.509 114.505 104.67 114.504 96.8336ZM119.183 103.135C119.178 106.774 119.178 110.412 119.183 114.051C120.646 112.233 122.102 110.41 123.56 108.589C122.098 106.772 120.653 104.942 119.183 103.135Z" fill="white"/>
<path id="Vector_9" d="M135.169 96.8402C135.132 96.5682 135.254 96.2137 135.576 96.2067C136.745 96.1593 137.916 96.1997 139.085 96.1874C139.539 96.1576 140.014 96.3067 140.29 96.6857C144.8 102.304 149.293 107.937 153.807 113.552C153.807 107.978 153.805 102.403 153.807 96.8261C153.732 96.4752 154.006 96.1348 154.373 96.1909C155.611 96.1927 156.849 96.1628 158.085 96.2067C158.402 96.219 158.516 96.5699 158.481 96.8402C158.481 104.673 158.481 112.507 158.481 120.34C158.518 120.606 158.4 120.968 158.08 120.973C156.851 121.008 155.618 120.984 154.389 120.985C153.983 121.001 153.598 120.806 153.359 120.485C148.854 114.872 144.364 109.244 139.856 103.635C139.85 106.925 139.864 110.217 139.85 113.507C139.936 113.8 139.518 114.051 139.34 113.784C138.046 112.217 136.796 110.613 135.519 109.032C135.234 108.722 135.143 108.304 135.164 107.895C135.171 104.21 135.162 100.525 135.169 96.8402Z" fill="white"/>
<path id="Vector_10" d="M161.714 96.6577C161.677 96.3384 162.018 96.1541 162.298 96.191C167.461 96.1822 172.623 96.191 177.786 96.1875C178.233 96.1594 178.701 96.305 178.973 96.6805C179.888 97.8176 180.811 98.9512 181.709 100.102C181.947 100.295 181.769 100.678 181.47 100.625C178.771 100.646 176.07 100.625 173.369 100.634C173.357 107.204 173.385 113.774 173.383 120.343C173.446 120.657 173.23 121.019 172.878 120.982C171.646 120.993 170.411 120.998 169.18 120.98C168.918 121.003 168.69 120.771 168.716 120.513C168.672 113.888 168.714 107.26 168.679 100.634C166.55 100.629 164.419 100.641 162.291 100.63C162.008 100.664 161.67 100.469 161.714 100.15C161.696 98.9863 161.695 97.8211 161.714 96.6577Z" fill="white"/>
</g>
</g>
<defs>
<clipPath id="clip0_38_2737">
<rect width="182" height="124" fill="white"/>
</clipPath>
</defs>
</svg>
